<mxfile host="app.diagrams.net" modified="2023-04-24T07:16:12.208Z" agent="Mozilla/5.0 (Windows NT 10.0; WOW64) AppleWebKit/537.36 (KHTML, like Gecko) Chrome/108.0.5359.95 Safari/537.36" version="21.2.1" etag="MqPblTXwX_d1SGoMMBAK" type="github">
  <diagram name="第 1 页" id="CwxvZy2AFOhkpVhhhzh2">
    <mxGraphModel>
      <root>
        <mxCell id="0" />
        <mxCell id="1" parent="0" />
      </root>
    </mxGraphModel>
  </diagram>
</mxfile>
